<?xml version="1.0" encoding="utf-8"?>
<!-- Generator: Adobe Illustrator 20.0.0, SVG Export Plug-In . SVG Version: 6.00 Build 0)  -->
<svg version="1.1" xmlns="http://www.w3.org/2000/svg" xmlns:xlink="http://www.w3.org/1999/xlink" x="0px" y="0px"
	 viewBox="0 0 500.3 660.4" style="enable-background:new 0 0 500.3 660.4;" xml:space="preserve">
<style type="text/css">
	.st0{fill:#FFFFFF;}
	.st1{display:none;}
	.st2{display:inline;}
	.st3{display:inline;fill:#0F96D4;}
	.st4{display:inline;fill:#FFFFFF;}
	.st5{display:inline;fill:#FEDF16;}
	.st6{display:inline;fill:#EE3825;}
	.st7{display:inline;fill:#D08829;}
	.st8{display:inline;fill:none;stroke:#AB2D29;stroke-width:4;stroke-miterlimit:10;}
	.st9{display:inline;fill:none;stroke:#AB2D29;stroke-width:3;stroke-miterlimit:10;}
</style>
<g id="Fons">
	<path id="Ratpenat_3_" class="st0" d="M500.3,267.4c-0.3-19.1-2.5-31.6-6.4-51.1C489.6,190.4,446,66.4,333.6,15.9
		c-4.6-1.1-6,0-7.3,1.2c-11.2,12.9-34.3,32.3-53.8,9c4.3-10.6,5.9-14.9,5.2-23c-2-2.1-6.7-3.1-10.3-3c-5.1,1.2-5.8,5.5-9.5,6.6
		c-1.9-0.2-3.8-1.1-7.9-0.8c-4-0.2-6,0.6-7.9,0.8c-3.7-1.1-4.3-5.5-9.5-6.6c-3.6-0.1-8.2,0.9-10.3,3c-0.6,8.1,1,12.4,5.2,23
		c-19.4,23.3-42.6,3.9-53.8-9c-1.4-1.2-2.8-2.3-7.3-1.2C54.3,66.4,10.6,190.4,6.4,216.3c-3.9,19.5-6.1,32-6.4,51.1
		c-1,79.2,37.4,173.4,63.1,215.6c50.5,94.5,141.8,183.8,187,177c45.3,6.8,136.5-82.5,187-177C462.9,440.8,501.3,346.6,500.3,267.4z"
		/>
</g>
<g id="Ratpenat_1_" class="st1">
	<path id="Ratpenat" class="st2" d="M500.3,267.4c-0.3-19.1-2.5-31.6-6.4-51.1C489.6,190.4,446,66.4,333.6,15.9
		c-4.6-1.1-6,0-7.3,1.2c-11.2,12.9-34.3,32.3-53.8,9c4.3-10.6,5.9-14.9,5.2-23c-2-2.1-6.7-3.1-10.3-3c-5.1,1.2-5.8,5.5-9.5,6.6
		c-1.9-0.2-3.8-1.1-7.9-0.8c-4-0.2-6,0.6-7.9,0.8c-3.7-1.1-4.3-5.5-9.5-6.6c-3.6-0.1-8.2,0.9-10.3,3c-0.6,8.1,1,12.4,5.2,23
		c-19.4,23.3-42.6,3.9-53.8-9c-1.4-1.2-2.8-2.3-7.3-1.2C54.3,66.4,10.6,190.4,6.4,216.3c-3.9,19.5-6.1,32-6.4,51.1
		c-1,79.2,37.4,173.4,63.1,215.6c50.5,94.5,141.8,183.8,187,177c45.3,6.8,136.5-82.5,187-177C462.9,440.8,501.3,346.6,500.3,267.4z
		 M337.6,26C357,45.2,386.3,82.4,387,127.2c-4.2-48-39.2-84.4-51.7-99.5C334.9,26.8,336.4,25.3,337.6,26z M162.6,26
		c1.3-0.7,2.8,0.8,2.4,1.6c-12.5,15.2-47.5,51.5-51.7,99.5C114,82.4,143.3,45.2,162.6,26z M436.1,459.3c-50.2,105-138,189-186,189.8
		c-48-0.8-135.8-84.8-186-189.8c-30.3-66.7-53.5-138-49.6-191.8c1.9-17.9,11.5-36.2,19.8-52.2c10.1-18.2,37.6-74.1,83.9-72.3
		c21-18.9,78.6-18.1,88.9,39.7c0.6,3.3-2.8,3.7-2.4,8c1.5,2,3,3.2,6,3.2c7.1-3.4,7.5-16.5,21.8-9.7c9.3,4.4,12.5,11.8,17.7,20
		c5.2-8.2,8.4-15.6,17.7-20c14.3-6.8,14.8,6.3,21.8,9.7c3,0,4.5-1.2,6-3.2c0.4-4.3-3-4.7-2.4-8c10.3-57.8,67.8-58.6,88.9-39.7
		c46.3-1.9,73.8,54,83.9,72.3c8.3,16.1,17.9,34.4,19.8,52.2C489.6,321.3,466.4,392.6,436.1,459.3z"/>
</g>
<g id="Nom" class="st1">
	<path class="st3" d="M485.8,267.5c-1.9-17.9-11.5-36.2-19.8-52.2c-0.2-0.3-0.3-0.6-0.5-0.8H34.8c-0.2,0.3-0.3,0.6-0.5,0.8
		c-8.3,16.1-17.9,34.4-19.8,52.2c0,0.3,0,0.6,0,0.8h471.3C485.8,268,485.8,267.7,485.8,267.5z"/>
	<polygon class="st4" points="42.5,223.8 56.1,258.8 64.5,258.8 77.8,223.8 69.2,223.8 60.2,248.6 51.8,223.8 	"/>
	<path class="st4" d="M99.8,223.8h-9.3l-13.9,35h8.2l3.3-7.8l13.7,0.3l2.8,7.5h9L99.8,223.8z M90.5,244.9l4.7-12l4.2,12H90.5z"/>
	<polygon class="st4" points="120.1,223.8 120.1,258.8 147.8,258.8 147.8,251.8 128.1,251.8 128.1,223.8 	"/>
	<polygon class="st4" points="156.1,223.8 156.1,258.8 186,258.8 186,251.8 164.1,251.8 164.1,244 183.1,244 183.1,238 164.1,238 
		164.1,230.8 185.1,230.8 185.1,223.8 	"/>
	<polygon class="st4" points="196.1,258.8 196.1,223.8 204.1,223.8 220.1,245.8 220.1,223.8 228.1,223.8 228.1,258.8 220.1,258.8 
		204.1,236.8 204.1,258.8 	"/>
	<path class="st4" d="M255.1,223.8c11.1,0,16,6.5,16,8v3h-7c0-2.6-2.3-5-9-5c-3.9,0-10,3.6-10,12c0,8.4,7.2,11,10,11c7.4,0,9-2,9-6
		h7v3c0,3.1-5.4,9-16,9c-8.3,0-17-7.8-17-17C238.1,232.7,245.1,223.8,255.1,223.8z"/>
	<rect x="282.3" y="223.8" class="st4" width="8.3" height="35"/>
	<path class="st4" d="M321.3,223.8H312l-13.9,35h8.2l3.3-7.8l13.7,0.3l2.8,7.5h9L321.3,223.8z M312,244.9l4.7-12l4.2,12H312z"/>
	<path class="st4" d="M375.1,223.8c11.1,0,16,6.5,16,8v3h-7c0-2.6-2.3-5-9-5c-3.9,0-10,3.6-10,12c0,8.4,7.2,11,10,11c7.4,0,9-2,9-6
		h7v3c0,3.1-5.4,9-16,9c-8.3,0-17-7.8-17-17C358.1,232.7,365.1,223.8,375.1,223.8z"/>
	<rect x="402.2" y="251.6" class="st4" width="8" height="7.2"/>
	<polygon class="st4" points="420.6,223.8 420.6,258.8 428.6,258.8 428.6,244 447.6,244 447.6,238 428.6,238 428.6,230.8 
		449.6,230.8 449.6,223.8 	"/>
	<rect x="450.4" y="251.6" class="st4" width="8" height="7.2"/>
</g>
<g id="Senyera" class="st1">
	<path class="st5" d="M435.8,459.9c0.1-0.2,0.2-0.4,0.3-0.6c30.1-66.4,53.3-137.2,49.7-191h-50V459.9z"/>
	<path class="st6" d="M383.9,268.3v276.9c19.2-25.5,37.2-54.5,52-85.2V268.3H383.9z"/>
	<path class="st5" d="M330.1,268.3v336.6c18-16.4,36.4-36.7,53.7-59.8V268.3H330.1z"/>
	<path class="st6" d="M278.2,268.3v373.2c15.9-7.4,33.7-20,52-36.6V268.3H278.2z"/>
	<path class="st5" d="M250.1,268.3h-28v373.2c10.3,4.8,19.7,7.4,28,7.5c8.3-0.1,17.8-2.7,28-7.5V268.3H250.1z"/>
	<path class="st6" d="M221.9,268.3v373.2c-15.9-7.4-33.7-20-52-36.6V268.3H221.9z"/>
	<path class="st5" d="M169.7,268.3v336.6c-18-16.4-36.4-36.7-53.7-59.8V268.3H169.7z"/>
	<path class="st6" d="M116.4,268.3v276.9c-19.2-25.5-37.2-54.5-52-85.2V268.3H116.4z"/>
	<path class="st5" d="M64.5,459.9c-0.1-0.2-0.2-0.4-0.3-0.6c-30.1-66.4-53.3-137.2-49.7-191h50V459.9z"/>
</g>
<g id="Pilota" class="st1">
	<circle class="st7" cx="251.1" cy="388.1" r="71.8"/>
	<circle class="st8" cx="251.1" cy="388.1" r="71.8"/>
	<path class="st9" d="M191.2,348.1c10,10.5,20.4,14.7,36.5,7.7c9,5.5,17.5,6.9,28.9,0.3c2.8-10.9,10.6-16.9,24.3-15.9
		c3.7-5.1,8.6-7.9,16.2-7.2"/>
	<path class="st9" d="M257,316.6c-10.8,5-30.2,19.5-29.2,39.2"/>
	<path class="st9" d="M258.5,459.6c47.2-5.7,58.7-86.5,22.4-119.4"/>
	<path class="st9" d="M192.6,429.7c15.1-1.4,19.3,2.9,25.3,9.9c9.8-5,17.5-7.8,33.2,1.5c35.5-11,16-43.8,16-43.8
		s10.5-26.8-10.5-41.2"/>
	<path class="st9" d="M179.4,387.1c10.8,11.5,54.5,19.8,87.8,10.2"/>
	<path class="st9" d="M251.1,441.1c5.8,13.8,11.3,14.4,19.1,16.3"/>
	<path class="st9" d="M217.9,439.6c3.8,12.8,9.8,16.4,9.8,16.4"/>
</g>
</svg>
